<svg xml:space="preserve" style="enable-background:new 0 0 169 48;" viewBox="0 0 169 48" y="0px" x="0px" xmlns:xlink="http://www.w3.org/1999/xlink" xmlns="http://www.w3.org/2000/svg" id="Layer_1" version="1.1">
<style type="text/css">
	.st0{filter:url(#Adobe_OpacityMaskFilter);}
	.st1{fill-rule:evenodd;clip-rule:evenodd;fill:#FFFFFF;}
	.st2{mask:url(#b_00000015323816008962642300000001496084090481463444_);fill-rule:evenodd;clip-rule:evenodd;fill:#2B5FCE;}
	.st3{fill-rule:evenodd;clip-rule:evenodd;fill:#B99BF9;}
	.st4{filter:url(#Adobe_OpacityMaskFilter_00000070096609406813289160000003041244011984063381_);}
	.st5{mask:url(#d_00000094605902814032266960000001616220274774341270_);fill-rule:evenodd;clip-rule:evenodd;fill:#2B5FCE;}
	.st6{filter:url(#Adobe_OpacityMaskFilter_00000050642224932191509920000001203780338623616663_);}
	.st7{mask:url(#f_00000143593346263496878250000010083169809549157270_);fill-rule:evenodd;clip-rule:evenodd;fill:#2B5FCE;}
	.st8{filter:url(#Adobe_OpacityMaskFilter_00000101089740773367150690000016865248031428246206_);}
	.st9{mask:url(#h_00000104689767014499574270000009604294417319272356_);fill-rule:evenodd;clip-rule:evenodd;fill:#0B1528;}
</style>
<g>
	<g transform="translate(21.333 15.116)">
		<defs>
			<filter height="32.5" width="19.7" y="0.1" x="0.3" filterUnits="userSpaceOnUse" id="Adobe_OpacityMaskFilter">
				<feColorMatrix values="1 0 0 0 0  0 1 0 0 0  0 0 1 0 0  0 0 0 1 0" type="matrix"></feColorMatrix>
			</filter>
		</defs>
		
			<mask id="b_00000015323816008962642300000001496084090481463444_" height="32.5" width="19.7" y="0.1" x="0.3" maskUnits="userSpaceOnUse">
			<g class="st0">
				<path d="M0.3,0.1h19.7v32.5H0.3V0.1z" class="st1" id="a_00000101807352217072893400000017389747274284642489_"></path>
			</g>
		</mask>
		<path d="M17.8,23.1c0,0-3.4,2.4-7.7,5s-7.7,4.3-7.7,4.3c-1,0.6-1.8,0.1-1.8-1.1c0,0-0.3-4.3-0.3-9
			c0-4.7,0.3-9.3,0.3-9.3c0-1.2,0.8-2.7,1.8-3.3c0,0,3.3-2.4,7.7-5c4.4-2.6,7.7-4.3,7.7-4.3c1-0.6,1.7,0,1.8,1.1
			c0.1,1.1,0.3,3,0.3,9s-0.3,9.3-0.3,9.3C19.6,21,18.8,22.5,17.8,23.1" class="st2"></path>
	</g>
	<path d="M38.7,30.4L36,28c-0.4-0.3-0.9-0.2-1.1,0.2l-1.7,3.4l0,0L30.1,29c-0.4-0.3-0.9-0.2-1.1,0.2l-5.1,10.5
		c-0.2,0.4,0,0.6,0.4,0.3l10-6l4.5-2.7C39.1,31.1,39.1,30.7,38.7,30.4" class="st1"></path>
	<path d="M33.8,26.2c0,0.5-0.3,1.1-0.7,1.3c-0.4,0.2-0.7,0-0.7-0.4c0-0.5,0.3-1.1,0.7-1.3S33.8,25.7,33.8,26.2" class="st3"></path>
	<g transform="translate(0 15.116)">
		<defs>
			
				<filter height="32.4" width="19.7" y="0.2" x="0" filterUnits="userSpaceOnUse" id="Adobe_OpacityMaskFilter_00000018235703648866357110000011836088153262106264_">
				<feColorMatrix values="1 0 0 0 0  0 1 0 0 0  0 0 1 0 0  0 0 0 1 0" type="matrix"></feColorMatrix>
			</filter>
		</defs>
		
			<mask id="d_00000094605902814032266960000001616220274774341270_" height="32.4" width="19.7" y="0.2" x="0" maskUnits="userSpaceOnUse">
			<g style="filter:url(#Adobe_OpacityMaskFilter_00000018235703648866357110000011836088153262106264_);">
				<path d="M0,0.2h19.7v32.4H0V0.2z" class="st1" id="c_00000170970814367311131160000015967045925903339414_"></path>
			</g>
		</mask>
		<path d="M0.3,19.8c0,0-0.3-3.4-0.3-9.3c0-5.5,0.2-7.9,0.3-9c0.1-1,0.8-1.7,1.8-1.1c0,0,3.3,1.6,7.7,4.2
			c4.4,2.6,7.7,5,7.7,5c1,0.6,1.8,2.1,1.8,3.3c0,0,0.3,4.7,0.3,9.3c0,4.7-0.3,9-0.3,9c0,1.2-0.8,1.7-1.8,1.1c0,0-3.4-1.7-7.7-4.2
			c-2.6-1.6-5.2-3.2-7.7-5C1.1,22.5,0.3,21,0.3,19.8" class="st5"></path>
	</g>
	<path d="M8.2,23.1L3,19.9c-0.2-0.1-0.4-0.1-0.4,0.2v14.2c0,0.3,0.2,0.6,0.4,0.7l5.2,3.2c0.2,0.1,0.4,0.1,0.4-0.2V23.8
		C8.6,23.5,8.5,23.2,8.2,23.1 M15.9,28.1l-5.6-3.6c-0.2-0.1-0.4-0.1-0.4,0.2v5.8c0,0.3,0.2,0.6,0.4,0.7l5.6,3.6
		c0.2,0.1,0.4,0.1,0.4-0.2v-5.8C16.4,28.6,16.2,28.3,15.9,28.1" class="st1"></path>
	<path d="M15.9,43.3l-5.6-3.6c-0.2-0.1-0.4-0.5-0.4-0.7v-5.8c0-0.3,0.2-0.3,0.4-0.2l5.6,3.6c0.2,0.1,0.4,0.5,0.4,0.7
		v5.8C16.4,43.3,16.2,43.4,15.9,43.3" class="st3"></path>
	<g transform="translate(1.481 .005)">
		<defs>
			
				<filter height="22" width="37.6" y="0.3" x="0.3" filterUnits="userSpaceOnUse" id="Adobe_OpacityMaskFilter_00000132774403858254831110000014339502079961507221_">
				<feColorMatrix values="1 0 0 0 0  0 1 0 0 0  0 0 1 0 0  0 0 0 1 0" type="matrix"></feColorMatrix>
			</filter>
		</defs>
		
			<mask id="f_00000143593346263496878250000010083169809549157270_" height="22" width="37.6" y="0.3" x="0.3" maskUnits="userSpaceOnUse">
			<g style="filter:url(#Adobe_OpacityMaskFilter_00000132774403858254831110000014339502079961507221_);">
				<path d="M0.3,0.3h37.6v22H0.3V0.3z" class="st1" id="e_00000009567439474183281360000012293444632869926831_"></path>
			</g>
		</mask>
		<path d="M37.2,12.4c0,0-3.3,2.3-7.7,4.9c-2.7,1.6-5.5,3.1-8.4,4.5c-1.1,0.6-2.8,0.6-3.9,0c0,0-4.3-2.1-8.4-4.5
			s-7.8-4.9-7.8-4.9c-1.1-0.6-1.1-1.6,0-2.3c0,0,3.1-2.2,7.7-4.9c2.7-1.6,5.5-3.1,8.3-4.5c1.1-0.6,2.5-0.7,3.9,0
			c1.4,0.7,3.1,1.5,8.4,4.5c5.2,3,6.8,4.2,7.8,4.9C38.1,10.8,38.2,11.8,37.2,12.4" class="st7"></path>
	</g>
	<path d="M13.9,9.5c-0.7-0.4-0.5-0.8,0.2-0.8l8.3-0.8c0.8-0.1,1.3,0.5,1.1,1.3l-1,3.7c-0.2,0.8-0.9,1.1-1.6,0.7
		C20.8,13.5,13.9,9.5,13.9,9.5z" class="st1"></path>
	<path d="M34.7,11.1l-14.5,8.5l-1-0.6l14.4-8.5L34.7,11.1z" class="st3"></path>
	<path d="M23.8,16.9c0.6,0.4,0.6,1,0,1.3c-0.6,0.4-1.6,0.4-2.3,0c-0.6-0.4-0.6-1,0-1.3C22.1,16.5,23.1,16.5,23.8,16.9" class="st1"></path>
	<g transform="translate(55.111 9.487)">
		<defs>
			
				<filter height="27.4" width="113.3" y="0.3" x="0.1" filterUnits="userSpaceOnUse" id="Adobe_OpacityMaskFilter_00000083796232757320703740000000373711180750664889_">
				<feColorMatrix values="1 0 0 0 0  0 1 0 0 0  0 0 1 0 0  0 0 0 1 0" type="matrix"></feColorMatrix>
			</filter>
		</defs>
		
			<mask id="h_00000104689767014499574270000009604294417319272356_" height="27.4" width="113.3" y="0.3" x="0.1" maskUnits="userSpaceOnUse">
			<g style="filter:url(#Adobe_OpacityMaskFilter_00000083796232757320703740000000373711180750664889_);">
				<path d="M0.1,0.3h113.3v27.4H0.1V0.3z" class="st1" id="g_00000163071782210639114350000013424864057826998204_"></path>
			</g>
		</mask>
		<path d="M101.7,26.6v-17c0-0.5,0.2-0.7,0.7-0.7h4c0.5,0,0.7,0.3,0.7,0.7v1.6c0,0.6,0.3,0.8,0.8,0.3
			c1.2-1.4,2.9-2.4,4.7-2.7c0.5-0.1,0.8,0.2,0.8,0.7v3.9c0,0.4-0.2,0.7-0.7,0.7c-3.5,0.2-5.3,1.6-5.3,4.8v7.6c0,0.5-0.2,0.7-0.7,0.7
			h-4.3C102,27.3,101.7,27,101.7,26.6z M92.6,15.7c0.5,0,0.8-0.3,0.6-0.8c-0.6-1.5-1.9-2.4-3.8-2.4c-1.8,0-3.2,0.9-3.9,2.4
			c-0.2,0.5,0.1,0.8,0.6,0.8H92.6L92.6,15.7z M79.5,18.1c0-5.3,4-9.6,9.8-9.6c5.3,0,9.4,3.6,9.4,9.3l0,0.5c0,0.4-0.3,0.7-0.7,0.7
			H85.9c-0.5,0-0.8,0.3-0.6,0.8c0.4,2.2,2.2,3.4,4.3,3.4c1.5,0,2.9-0.6,3.8-1.8c0.3-0.4,0.6-0.5,1-0.3l3.2,1.3
			c0.4,0.2,0.6,0.5,0.4,0.8c-1.5,2.7-4.5,4.4-8.3,4.4C83.5,27.6,79.5,23.4,79.5,18.1L79.5,18.1z M48.9,26.6v-17
			c0-0.5,0.2-0.7,0.7-0.7h4.3c0.5,0,0.7,0.3,0.7,0.7v0.7c0,0.6,0.3,0.7,0.8,0.3c1.2-1.2,2.7-2,4.6-2c2.2,0,3.9,0.7,4.9,2.3
			c0.3,0.4,0.5,0.5,0.9,0.1c1.3-1.5,3-2.3,5.1-2.3c3.7,0,6.1,2.1,6.1,6.1v11.9c0,0.5-0.3,0.7-0.7,0.7h-4.3c-0.5,0-0.7-0.2-0.7-0.7
			V16c0-1.8-1.1-2.9-2.7-2.9c-1.9,0-2.8,1.4-2.8,3.2v10.2c0,0.5-0.3,0.7-0.7,0.7h-4.3c-0.5,0-0.7-0.2-0.7-0.7V16
			c0-1.8-1-2.9-2.7-2.9c-1.9,0-2.8,1.4-2.8,3.2v10.2c0,0.5-0.2,0.7-0.7,0.7h-4.3C49.1,27.3,48.9,27,48.9,26.6L48.9,26.6z M40.5,18.1
			c0-2.8-2.2-4.8-4.8-4.8c-2.7,0-4.8,1.9-4.8,4.8c0,2.9,2.1,4.8,4.8,4.8C38.3,22.8,40.5,20.9,40.5,18.1z M25.5,18.1
			c0-5.6,4.4-9.5,10.2-9.5c5.8,0,10.2,3.9,10.2,9.5c0,5.6-4.4,9.5-10.2,9.5C29.9,27.6,25.5,23.7,25.5,18.1L25.5,18.1z M9.4,25.7
			c-0.4-0.2-0.5-0.6-0.2-1l1.5-2.7c0.2-0.4,0.6-0.5,1-0.2c1.5,1,3.5,1.7,5,1.7c1.2,0,1.9-0.5,1.9-1.4c0-1.2-1.6-1.6-3.6-2.3
			C12.6,19,9.7,18,9.7,14.3c0-3.9,3.3-5.7,7.1-5.7c2.1,0,4.3,0.5,6.1,1.6c0.4,0.2,0.5,0.6,0.2,1l-1.5,2.4c-0.2,0.4-0.6,0.5-1,0.2
			c-1.2-0.6-2.8-1.2-4-1.2c-1,0-1.7,0.4-1.7,1.2c0,1.1,1.8,1.4,3.8,2.1c2.5,0.8,5.3,2,5.3,5.8c0,4.1-3.1,6-7.3,6
			C14.1,27.6,11.4,26.8,9.4,25.7z M0.4,26.6v-17c0-0.5,0.2-0.7,0.7-0.7h4.2C5.8,8.9,6,9.1,6,9.6v17c0,0.5-0.2,0.7-0.7,0.7H1.1
			C0.6,27.3,0.4,27,0.4,26.6z M0.1,3.4c0-1.7,1.4-3.1,3.2-3.1c1.7,0,3.1,1.4,3.1,3.1c0,1.7-1.4,3.1-3.1,3.1C1.5,6.5,0.1,5.1,0.1,3.4
			L0.1,3.4z" class="st9"></path>
	</g>
</g>
</svg>
