<svg xml:space="preserve" style="enable-background:new 0 0 2777.1 394.1;" viewBox="0 0 2777.1 394.1" y="0px" x="0px" xmlns:xlink="http://www.w3.org/1999/xlink" xmlns="http://www.w3.org/2000/svg" id="Layer_1" version="1.1">
<style type="text/css">
	.st0{fill:none;}
	.st1{enable-background:new    ;}
	.st2{fill:#3F7B98;}
	.st3{fill:#BEDAEC;}
	.st4{fill:#89C4EC;}
	.st5{fill:#FFFFFF;}
</style>
<g>
	<rect height="493.5" width="411.8" class="st0" y="42.8" x="762.9"></rect>
	<g class="st1">
		<path d="M1046.5,339.1c-1.3,6.3-5.3,9.9-11.9,10.7h-61.1c-11.4,0-21-5.3-29-15.9c-0.5-0.5-1.6-2-3.2-4.4l-48.8-84.5
			h-13.9v84.5c0,9-4,15.2-11.9,18.6c-2.6,1.1-5.4,1.6-8.3,1.6h-57.1c-9,0-15.2-4-18.6-11.9c-1.1-2.9-1.6-5.7-1.6-8.3V63
			c0-9,4-15.2,11.9-18.6c2.9-1.1,5.7-1.6,8.3-1.6h105.9c37.5,0,68.3,9.9,92.4,29.7c21.9,18.5,33,42.3,33.3,71.4
			c0,35.4-15.6,62.4-46.8,80.9c-1.9,1.1-3.7,2.1-5.6,3.2l62.3,101.5C1045.4,332.7,1046.5,335.9,1046.5,339.1z M878.8,186.4h28.6
			c13,0,21.5-5,25.8-15.1c1.6-3.4,2.4-7.1,2.4-11.1v-32.5c0-12.4-5.8-20.8-17.5-25c-3.4-1.1-7-1.6-10.7-1.6h-28.6V186.4z" class="st2"></path>
	</g>
	<rect height="493.5" width="411.8" class="st0" y="42.8" x="744.1"></rect>
	<g class="st1">
		<path d="M1027.7,339.1c-1.3,6.3-5.3,9.9-11.9,10.7h-61.1c-11.4,0-21-5.3-29-15.9c-0.5-0.5-1.6-2-3.2-4.4l-48.8-84.5
			h-13.9v84.5c0,9-4,15.2-11.9,18.6c-2.6,1.1-5.4,1.6-8.3,1.6h-57.1c-9,0-15.2-4-18.6-11.9c-1.1-2.9-1.6-5.7-1.6-8.3V63
			c0-9,4-15.2,11.9-18.6c2.9-1.1,5.7-1.6,8.3-1.6h105.9c37.5,0,68.3,9.9,92.4,29.7c21.9,18.5,33,42.3,33.3,71.4
			c0,35.4-15.6,62.4-46.8,80.9c-1.9,1.1-3.7,2.1-5.6,3.2l62.3,101.5C1026.5,332.7,1027.7,335.9,1027.7,339.1z M859.9,186.4h28.6
			c13,0,21.5-5,25.8-15.1c1.6-3.4,2.4-7.1,2.4-11.1v-32.5c0-12.4-5.8-20.8-17.5-25c-3.4-1.1-7-1.6-10.7-1.6h-28.6V186.4z" class="st3"></path>
	</g>
	<rect height="493.5" width="411.8" class="st0" y="42.8" x="732.8"></rect>
	<g class="st1">
		<path d="M1016.4,339.1c-1.3,6.3-5.3,9.9-11.9,10.7h-61.1c-11.4,0-21-5.3-29-15.9c-0.5-0.5-1.6-2-3.2-4.4l-48.8-84.5
			h-13.9v84.5c0,9-4,15.2-11.9,18.6c-2.6,1.1-5.4,1.6-8.3,1.6h-57.1c-9,0-15.2-4-18.6-11.9c-1.1-2.9-1.6-5.7-1.6-8.3V63
			c0-9,4-15.2,11.9-18.6c2.9-1.1,5.7-1.6,8.3-1.6h105.9c37.5,0,68.3,9.9,92.4,29.7c21.9,18.5,33,42.3,33.3,71.4
			c0,35.4-15.6,62.4-46.8,80.9c-1.9,1.1-3.7,2.1-5.6,3.2l62.3,101.5C1015.2,332.7,1016.4,335.9,1016.4,339.1z M848.6,186.4h28.6
			c13,0,21.5-5,25.8-15.1c1.6-3.4,2.4-7.1,2.4-11.1v-32.5c0-12.4-5.8-20.8-17.5-25c-3.4-1.1-7-1.6-10.7-1.6h-28.6V186.4z" class="st4"></path>
	</g>
	<path d="M781.7,333.9h-2.9c-4.7,0-8.6-3.8-8.6-8.6V75.9c0-4.7,3.8-8.6,8.6-8.6h2.9c4.7,0,8.6,3.8,8.6,8.6v249.4
		C790.3,330,786.4,333.9,781.7,333.9z" class="st5"></path>
	<path d="M950,330.4l-2.5,1.5c-4.1,2.4-9.4,1-11.7-3.1l-43.1-74.6c-2.4-4.1-1-9.4,3.1-11.7l2.5-1.5
		c4.1-2.4,9.4-1,11.7,3.1l43.1,74.6C955.5,322.7,954.1,328,950,330.4z" class="st5"></path>
	<ellipse ry="34.6" rx="15.1" cy="142.1" cx="976.4" class="st5"></ellipse>
	<circle r="1.9" cy="198.7" cx="1124.1" class="st5"></circle>
</g>
<path d="M1177.9,133.8v32c-32.5,0-54.3,11.9-54.3,47.1v81.7h-33.5V135.3h32.6v28.3C1132,147.8,1151.1,134.5,1177.9,133.8z"></path>
<path d="M1176.3,214.7c0-46.8,36.2-82.4,78.7-82.4c25.3,0,44.8,10.1,57.6,26.2v-23.2h33.4v159.3h-33.5v-23.2
	c-12.6,15.9-32.2,26.2-57.5,26.2C1212.5,297.6,1176.3,261.6,1176.3,214.7z M1314.6,214.7c0-30.2-23-52.8-52.3-52.8
	c-29.2,0-52.6,22.6-52.6,52.8c0,30.4,23.5,53.1,52.6,53.1C1291.6,267.8,1314.6,245.1,1314.6,214.7z"></path>
<path d="M1513.5,135.3l-93.9,196.1h-34.9l32.5-68.5l-62.3-127.6h37l43.2,99.5l42.3-99.5L1513.5,135.3L1513.5,135.3z"></path>
<path d="M1675.7,135.3l-93.9,196.1h-34.9l32.5-68.5l-62.2-127.6h37l43.2,99.5l42.3-99.5H1675.7z"></path>
<path d="M1667.8,214.7c0-46.8,36.2-82.4,78.7-82.4c25.3,0,44.8,10.1,57.6,26.2v-23.2h33.4v159.3H1804v-23.2
	c-12.6,15.9-32.2,26.2-57.5,26.2C1704.1,297.6,1667.8,261.6,1667.8,214.7z M1806.2,214.7c0-30.2-23-52.8-52.3-52.8
	c-29.2,0-52.6,22.6-52.6,52.8c0,30.4,23.5,53.1,52.6,53.1C1783.2,267.8,1806.2,245.1,1806.2,214.7z"></path>
<path d="M1997.6,197.7v96.9h-33.5v-92c0-30.8-15-41.2-35.6-41.2c-21.5,0-37.9,14-38,42.3v91H1857V135.3h33.5V158
	c10.2-16.2,26.8-25.7,47.8-25.7C1973,132.3,1997.6,154.2,1997.6,197.7z"></path>
</svg>
