<svg xml:space="preserve" style="enable-background:new 0 0 1366 394.1;" viewBox="0 0 1366 394.1" y="0px" x="0px" xmlns:xlink="http://www.w3.org/1999/xlink" xmlns="http://www.w3.org/2000/svg" id="Layer_1" version="1.1">
<style type="text/css">
	.st0{fill:none;}
	.st1{fill:#3F7B98;}
	.st2{font-family:'aAkhirTahun';}
	.st3{font-size:406.1053px;}
	.st4{fill:#BEDAEC;}
	.st5{fill:#89C4EC;}
	.st6{fill:#FFFFFF;}
</style>
<g>
	<rect height="493.5" width="411.8" class="st0" y="42.8" x="69.7"></rect>
	<text class="st1 st2 st3" transform="matrix(1 0 0 1 69.7354 349.7706)">R</text>
	<rect height="493.5" width="411.8" class="st0" y="42.8" x="50.9"></rect>
	<text class="st4 st2 st3" transform="matrix(1 0 0 1 50.876 349.7706)">R</text>
	<rect height="493.5" width="411.8" class="st0" y="42.8" x="39.6"></rect>
	<text class="st5 st2 st3" transform="matrix(1 0 0 1 39.5606 349.7706)">R</text>
	<path d="M88.5,333.9h-2.9c-4.7,0-8.6-3.8-8.6-8.6V75.9c0-4.7,3.8-8.6,8.6-8.6h2.9c4.7,0,8.6,3.8,8.6,8.6v249.4
		C97.1,330,93.2,333.9,88.5,333.9z" class="st6"></path>
	<path d="M256.8,330.4l-2.5,1.5c-4.1,2.4-9.4,1-11.7-3.1l-43.1-74.6c-2.4-4.1-1-9.4,3.1-11.7l2.5-1.5
		c4.1-2.4,9.4-1,11.7,3.1l43.1,74.6C262.3,322.7,260.9,328,256.8,330.4z" class="st6"></path>
	<ellipse ry="34.6" rx="15.1" cy="142.1" cx="283.2" class="st6"></ellipse>
	<circle r="1.9" cy="198.7" cx="430.9" class="st6"></circle>
</g>
<path d="M484.7,133.8v32c-32.5,0-54.3,11.9-54.3,47.1v81.7h-33.5V135.3h32.6v28.3C438.8,147.8,457.9,134.5,484.7,133.8z"></path>
<path d="M483.1,214.7c0-46.8,36.2-82.4,78.7-82.4c25.3,0,44.8,10.1,57.6,26.2v-23.2h33.4v159.3h-33.5v-23.2
	c-12.6,15.9-32.2,26.2-57.5,26.2C519.3,297.6,483.1,261.6,483.1,214.7z M621.4,214.7c0-30.2-23-52.8-52.3-52.8
	c-29.2,0-52.6,22.6-52.6,52.8c0,30.4,23.5,53.1,52.6,53.1C598.4,267.8,621.4,245.1,621.4,214.7z"></path>
<path d="M820.3,135.3l-93.9,196.1h-34.9l32.5-68.5l-62.3-127.6h37l43.2,99.5l42.3-99.5H820.3z"></path>
<path d="M982.5,135.3l-93.9,196.1h-34.9l32.5-68.5L824,135.3h37l43.2,99.5l42.3-99.5H982.5z"></path>
<path d="M974.6,214.7c0-46.8,36.2-82.4,78.7-82.4c25.3,0,44.8,10.1,57.6,26.2v-23.2h33.4v159.3h-33.5v-23.2
	c-12.6,15.9-32.2,26.2-57.5,26.2C1010.9,297.6,974.6,261.6,974.6,214.7z M1113,214.7c0-30.2-23-52.8-52.3-52.8
	c-29.2,0-52.6,22.6-52.6,52.8c0,30.4,23.5,53.1,52.6,53.1C1090,267.8,1113,245.1,1113,214.7z"></path>
<path d="M1304.4,197.7v96.9h-33.5v-92c0-30.8-15-41.2-35.6-41.2c-21.5,0-37.9,14-38,42.3v91h-33.5V135.3h33.5V158
	c10.2-16.2,26.8-25.7,47.8-25.7C1279.8,132.3,1304.4,154.2,1304.4,197.7z"></path>
</svg>
