<svg xml:space="preserve" style="enable-background:new 0 0 169 48;" viewBox="0 0 169 48" y="0px" x="0px" xmlns:xlink="http://www.w3.org/1999/xlink" xmlns="http://www.w3.org/2000/svg" id="Layer_1" version="1.1">
<style type="text/css">
	.st0{fill:none;}
	.st1{enable-background:new    ;}
	.st2{fill:#3E442B;}
	.st3{fill:#BEDAEC;}
	.st4{fill:#89C4EC;}
	.st5{fill:#FFFFFF;}
</style>
<g>
	<rect height="64.1" width="53.4" class="st0" y="4.7" x="6.8"></rect>
	<g class="st1">
		<path d="M43.6,43.1c-0.2,0.8-0.7,1.3-1.5,1.4h-7.9c-1.5,0-2.7-0.7-3.8-2.1c-0.1-0.1-0.2-0.3-0.4-0.6l-6.3-11h-1.8v11
			c0,1.2-0.5,2-1.5,2.4c-0.3,0.1-0.7,0.2-1.1,0.2h-7.4c-1.2,0-2-0.5-2.4-1.5c-0.1-0.4-0.2-0.7-0.2-1.1V7.3c0-1.2,0.5-2,1.5-2.4
			c0.4-0.1,0.7-0.2,1.1-0.2h13.7c4.9,0,8.9,1.3,12,3.9c2.8,2.4,4.3,5.5,4.3,9.3c0,4.6-2,8.1-6.1,10.5c-0.2,0.1-0.5,0.3-0.7,0.4
			l8.1,13.2C43.5,42.3,43.6,42.7,43.6,43.1z M21.9,23.3h3.7c1.7,0,2.8-0.6,3.3-2c0.2-0.4,0.3-0.9,0.3-1.4v-4.2
			c0-1.6-0.8-2.7-2.3-3.2c-0.4-0.1-0.9-0.2-1.4-0.2h-3.7V23.3z" class="st2"></path>
	</g>
	<rect height="64.1" width="53.4" class="st0" y="4.7" x="4.4"></rect>
	<g class="st1">
		<path d="M41.2,43.1c-0.2,0.8-0.7,1.3-1.5,1.4h-7.9c-1.5,0-2.7-0.7-3.8-2.1c-0.1-0.1-0.2-0.3-0.4-0.6l-6.3-11h-1.8v11
			c0,1.2-0.5,2-1.5,2.4c-0.3,0.1-0.7,0.2-1.1,0.2H9.4c-1.2,0-2-0.5-2.4-1.5c-0.1-0.4-0.2-0.7-0.2-1.1V7.3c0-1.2,0.5-2,1.5-2.4
			C8.7,4.7,9,4.7,9.4,4.7h13.7c4.9,0,8.9,1.3,12,3.9c2.8,2.4,4.3,5.5,4.3,9.3c0,4.6-2,8.1-6.1,10.5c-0.2,0.1-0.5,0.3-0.7,0.4
			l8.1,13.2C41,42.3,41.2,42.7,41.2,43.1z M19.4,23.3h3.7c1.7,0,2.8-0.6,3.3-2c0.2-0.4,0.3-0.9,0.3-1.4v-4.2c0-1.6-0.8-2.7-2.3-3.2
			c-0.4-0.1-0.9-0.2-1.4-0.2h-3.7V23.3z" class="st3"></path>
	</g>
	<rect height="64.1" width="53.4" class="st0" y="4.7" x="2.9"></rect>
	<g class="st1">
		<path d="M39.7,43.1c-0.2,0.8-0.7,1.3-1.5,1.4h-7.9c-1.5,0-2.7-0.7-3.8-2.1c-0.1-0.1-0.2-0.3-0.4-0.6l-6.3-11h-1.8v11
			c0,1.2-0.5,2-1.5,2.4c-0.3,0.1-0.7,0.2-1.1,0.2H7.9c-1.2,0-2-0.5-2.4-1.5c-0.1-0.4-0.2-0.7-0.2-1.1V7.3c0-1.2,0.5-2,1.5-2.4
			c0.4-0.1,0.7-0.2,1.1-0.2h13.7c4.9,0,8.9,1.3,12,3.9c2.8,2.4,4.3,5.5,4.3,9.3c0,4.6-2,8.1-6.1,10.5c-0.2,0.1-0.5,0.3-0.7,0.4
			l8.1,13.2C39.6,42.3,39.7,42.7,39.7,43.1z M17.9,23.3h3.7c1.7,0,2.8-0.6,3.3-2c0.2-0.4,0.3-0.9,0.3-1.4v-4.2
			c0-1.6-0.8-2.7-2.3-3.2c-0.4-0.1-0.9-0.2-1.4-0.2h-3.7V23.3z" class="st4"></path>
	</g>
	<path d="M9.3,42.4H8.9c-0.6,0-1.1-0.5-1.1-1.1V9c0-0.6,0.5-1.1,1.1-1.1h0.4c0.6,0,1.1,0.5,1.1,1.1v32.4
		C10.4,41.9,9.9,42.4,9.3,42.4z" class="st5"></path>
	<path d="M31.1,42l-0.3,0.2c-0.5,0.3-1.2,0.1-1.5-0.4l-5.6-9.7c-0.3-0.5-0.1-1.2,0.4-1.5l0.3-0.2
		c0.5-0.3,1.2-0.1,1.5,0.4l5.6,9.7C31.8,41,31.6,41.7,31.1,42z" class="st5"></path>
	<ellipse ry="4.5" rx="2" cy="17.5" cx="34.5" class="st5"></ellipse>
	<circle r="0.2" cy="24.9" cx="53.7" class="st5"></circle>
</g>
<path d="M58.2,15.3v4.3c-4.4,0-7.3,1.6-7.3,6.3v10.9h-4.5V15.5h4.4v3.8C52.1,17.2,54.6,15.4,58.2,15.3z"></path>
<path d="M58,26.1c0-6.3,4.8-11,10.5-11c3.4,0,6,1.4,7.7,3.5v-3.1h4.5v21.3h-4.5v-3.1c-1.7,2.1-4.3,3.5-7.7,3.5
	C62.9,37.2,58,32.4,58,26.1z M76.5,26.1c0-4-3.1-7.1-7-7.1c-3.9,0-7,3-7,7.1c0,4.1,3.1,7.1,7,7.1C73.4,33.2,76.5,30.2,76.5,26.1z"></path>
<path d="M103.2,15.5L90.6,41.8h-4.7l4.4-9.2l-8.3-17.1h5l5.8,13.3l5.7-13.3L103.2,15.5L103.2,15.5z"></path>
<path d="M124.9,15.5l-12.6,26.3h-4.7l4.4-9.2l-8.3-17.1h5l5.8,13.3l5.7-13.3L124.9,15.5L124.9,15.5z"></path>
<path d="M122.8,26.1c0-6.3,4.8-11,10.5-11c3.4,0,6,1.4,7.7,3.5v-3.1h4.5v21.3h-4.5v-3.1c-1.7,2.1-4.3,3.5-7.7,3.5
	C127.7,37.2,122.8,32.4,122.8,26.1z M141.4,26.1c0-4-3.1-7.1-7-7.1c-3.9,0-7,3-7,7.1c0,4.1,3.1,7.1,7,7.1
	C138.3,33.2,141.4,30.2,141.4,26.1z"></path>
<path d="M166,23.8v13h-4.5V24.5c0-4.1-2-5.5-4.8-5.5c-2.9,0-5.1,1.9-5.1,5.7v12.2h-4.5V15.5h4.5v3c1.4-2.2,3.6-3.4,6.4-3.4
	C162.7,15.1,166,18,166,23.8z"></path>
</svg>
